<mxfile host="app.diagrams.net" modified="2024-03-23T13:35:48.177Z" agent="Mozilla/5.0 (Windows NT 10.0; Win64; x64) AppleWebKit/537.36 (KHTML, like Gecko) Chrome/123.0.0.0 Safari/537.36" etag="FCogeg381IcSfG7xAR3i" version="24.0.8" type="github">
  <diagram id="C5RBs43oDa-KdzZeNtuy" name="Page-1">
    <mxGraphModel dx="821" dy="426" grid="1" gridSize="10" guides="1" tooltips="1" connect="1" arrows="1" fold="1" page="1" pageScale="1" pageWidth="827" pageHeight="1169" math="0" shadow="0">
      <root>
        <mxCell id="WIyWlLk6GJQsqaUBKTNV-0" />
        <mxCell id="WIyWlLk6GJQsqaUBKTNV-1" parent="WIyWlLk6GJQsqaUBKTNV-0" />
        <mxCell id="CfyG0F-m-0q7RZzn8O8Q-1" style="edgeStyle=orthogonalEdgeStyle;rounded=0;orthogonalLoop=1;jettySize=auto;html=1;exitX=0.5;exitY=1;exitDx=0;exitDy=0;" edge="1" parent="WIyWlLk6GJQsqaUBKTNV-1" source="CfyG0F-m-0q7RZzn8O8Q-0">
          <mxGeometry relative="1" as="geometry">
            <mxPoint x="290.0344827586207" y="140" as="targetPoint" />
          </mxGeometry>
        </mxCell>
        <mxCell id="CfyG0F-m-0q7RZzn8O8Q-0" value="&lt;span id=&quot;selected_text&quot;&gt;&lt;/span&gt;&lt;span id=&quot;selected_text&quot;&gt;&lt;/span&gt;(0) foo(int x)" style="rounded=1;whiteSpace=wrap;html=1;" vertex="1" parent="WIyWlLk6GJQsqaUBKTNV-1">
          <mxGeometry x="230" y="40" width="120" height="40" as="geometry" />
        </mxCell>
        <mxCell id="CfyG0F-m-0q7RZzn8O8Q-4" style="edgeStyle=orthogonalEdgeStyle;rounded=0;orthogonalLoop=1;jettySize=auto;html=1;exitX=0.5;exitY=1;exitDx=0;exitDy=0;" edge="1" parent="WIyWlLk6GJQsqaUBKTNV-1" source="CfyG0F-m-0q7RZzn8O8Q-3" target="CfyG0F-m-0q7RZzn8O8Q-5">
          <mxGeometry relative="1" as="geometry">
            <mxPoint x="290.0344827586207" y="240" as="targetPoint" />
          </mxGeometry>
        </mxCell>
        <mxCell id="CfyG0F-m-0q7RZzn8O8Q-3" value="&lt;span id=&quot;selected_text&quot;&gt;&lt;/span&gt;&lt;span id=&quot;selected_text&quot;&gt;&lt;/span&gt;&lt;span id=&quot;selected_text&quot;&gt;&lt;/span&gt;&lt;span id=&quot;selected_text&quot;&gt;&lt;/span&gt;(1) string res" style="rounded=1;whiteSpace=wrap;html=1;" vertex="1" parent="WIyWlLk6GJQsqaUBKTNV-1">
          <mxGeometry x="230" y="140" width="120" height="50" as="geometry" />
        </mxCell>
        <mxCell id="CfyG0F-m-0q7RZzn8O8Q-7" style="edgeStyle=orthogonalEdgeStyle;rounded=0;orthogonalLoop=1;jettySize=auto;html=1;exitX=0;exitY=0.5;exitDx=0;exitDy=0;" edge="1" parent="WIyWlLk6GJQsqaUBKTNV-1" source="CfyG0F-m-0q7RZzn8O8Q-5" target="CfyG0F-m-0q7RZzn8O8Q-8">
          <mxGeometry relative="1" as="geometry">
            <mxPoint x="130.0000000000001" y="330" as="targetPoint" />
          </mxGeometry>
        </mxCell>
        <mxCell id="CfyG0F-m-0q7RZzn8O8Q-14" style="edgeStyle=orthogonalEdgeStyle;rounded=0;orthogonalLoop=1;jettySize=auto;html=1;exitX=1;exitY=0.5;exitDx=0;exitDy=0;entryX=0.5;entryY=0;entryDx=0;entryDy=0;" edge="1" parent="WIyWlLk6GJQsqaUBKTNV-1" source="CfyG0F-m-0q7RZzn8O8Q-5" target="CfyG0F-m-0q7RZzn8O8Q-11">
          <mxGeometry relative="1" as="geometry" />
        </mxCell>
        <mxCell id="CfyG0F-m-0q7RZzn8O8Q-5" value="&lt;span id=&quot;selected_text&quot;&gt;&lt;/span&gt;&lt;span id=&quot;selected_text&quot;&gt;&lt;/span&gt;(2) switch(x)" style="rounded=1;whiteSpace=wrap;html=1;" vertex="1" parent="WIyWlLk6GJQsqaUBKTNV-1">
          <mxGeometry x="230" y="250" width="120" height="40" as="geometry" />
        </mxCell>
        <mxCell id="CfyG0F-m-0q7RZzn8O8Q-8" value="&lt;span id=&quot;selected_text&quot;&gt;&lt;/span&gt;&lt;span id=&quot;selected_text&quot;&gt;&lt;/span&gt;(3) res = &quot;A&quot;" style="rounded=1;whiteSpace=wrap;html=1;" vertex="1" parent="WIyWlLk6GJQsqaUBKTNV-1">
          <mxGeometry x="30" y="360" width="100" height="40" as="geometry" />
        </mxCell>
        <mxCell id="CfyG0F-m-0q7RZzn8O8Q-9" value="&lt;span id=&quot;selected_text&quot;&gt;&lt;/span&gt;&lt;span id=&quot;selected_text&quot;&gt;&lt;/span&gt;&lt;span id=&quot;selected_text&quot;&gt;&lt;/span&gt;&lt;span id=&quot;selected_text&quot;&gt;&lt;/span&gt;(4) res = &quot;B&quot;" style="rounded=1;whiteSpace=wrap;html=1;" vertex="1" parent="WIyWlLk6GJQsqaUBKTNV-1">
          <mxGeometry x="170" y="360" width="100" height="40" as="geometry" />
        </mxCell>
        <mxCell id="CfyG0F-m-0q7RZzn8O8Q-10" value="&lt;span id=&quot;selected_text&quot;&gt;&lt;/span&gt;&lt;span id=&quot;selected_text&quot;&gt;&lt;/span&gt;&lt;span id=&quot;selected_text&quot;&gt;&lt;/span&gt;&lt;span id=&quot;selected_text&quot;&gt;&lt;/span&gt;(5) res = &quot;C&quot;" style="rounded=1;whiteSpace=wrap;html=1;" vertex="1" parent="WIyWlLk6GJQsqaUBKTNV-1">
          <mxGeometry x="314" y="360" width="100" height="40" as="geometry" />
        </mxCell>
        <mxCell id="CfyG0F-m-0q7RZzn8O8Q-24" style="edgeStyle=orthogonalEdgeStyle;rounded=0;orthogonalLoop=1;jettySize=auto;html=1;exitX=0.5;exitY=1;exitDx=0;exitDy=0;entryX=1;entryY=0.5;entryDx=0;entryDy=0;" edge="1" parent="WIyWlLk6GJQsqaUBKTNV-1" source="CfyG0F-m-0q7RZzn8O8Q-11" target="CfyG0F-m-0q7RZzn8O8Q-26">
          <mxGeometry relative="1" as="geometry">
            <Array as="points">
              <mxPoint x="510" y="650" />
            </Array>
          </mxGeometry>
        </mxCell>
        <mxCell id="CfyG0F-m-0q7RZzn8O8Q-11" value="&lt;span id=&quot;selected_text&quot;&gt;&lt;/span&gt;&lt;span id=&quot;selected_text&quot;&gt;&lt;/span&gt;&lt;span id=&quot;selected_text&quot;&gt;&lt;/span&gt;&lt;span id=&quot;selected_text&quot;&gt;&lt;/span&gt;&lt;span id=&quot;selected_text&quot;&gt;&lt;/span&gt;&lt;span id=&quot;selected_text&quot;&gt;&lt;/span&gt;(6) res = &quot;haven&#39;t check&quot;" style="rounded=1;whiteSpace=wrap;html=1;" vertex="1" parent="WIyWlLk6GJQsqaUBKTNV-1">
          <mxGeometry x="450" y="360" width="120" height="40" as="geometry" />
        </mxCell>
        <mxCell id="CfyG0F-m-0q7RZzn8O8Q-12" style="edgeStyle=orthogonalEdgeStyle;rounded=0;orthogonalLoop=1;jettySize=auto;html=1;entryX=0.593;entryY=-0.021;entryDx=0;entryDy=0;entryPerimeter=0;exitX=0.25;exitY=1;exitDx=0;exitDy=0;" edge="1" parent="WIyWlLk6GJQsqaUBKTNV-1" source="CfyG0F-m-0q7RZzn8O8Q-5" target="CfyG0F-m-0q7RZzn8O8Q-9">
          <mxGeometry relative="1" as="geometry">
            <mxPoint x="230" y="290" as="sourcePoint" />
          </mxGeometry>
        </mxCell>
        <mxCell id="CfyG0F-m-0q7RZzn8O8Q-13" style="edgeStyle=orthogonalEdgeStyle;rounded=0;orthogonalLoop=1;jettySize=auto;html=1;exitX=0.75;exitY=1;exitDx=0;exitDy=0;entryX=0.369;entryY=0.009;entryDx=0;entryDy=0;entryPerimeter=0;" edge="1" parent="WIyWlLk6GJQsqaUBKTNV-1" source="CfyG0F-m-0q7RZzn8O8Q-5" target="CfyG0F-m-0q7RZzn8O8Q-10">
          <mxGeometry relative="1" as="geometry" />
        </mxCell>
        <mxCell id="CfyG0F-m-0q7RZzn8O8Q-16" value="&lt;b&gt;&lt;span id=&quot;selected_text&quot;&gt;&lt;/span&gt;65&lt;/b&gt;" style="text;html=1;align=center;verticalAlign=middle;resizable=0;points=[];autosize=1;strokeColor=none;fillColor=none;" vertex="1" parent="WIyWlLk6GJQsqaUBKTNV-1">
          <mxGeometry x="130" y="240" width="40" height="30" as="geometry" />
        </mxCell>
        <mxCell id="CfyG0F-m-0q7RZzn8O8Q-17" value="&lt;span id=&quot;selected_text&quot;&gt;&lt;/span&gt;&lt;b&gt;&lt;span id=&quot;selected_text&quot;&gt;&lt;/span&gt;66&lt;/b&gt;" style="text;html=1;align=center;verticalAlign=middle;resizable=0;points=[];autosize=1;strokeColor=none;fillColor=none;" vertex="1" parent="WIyWlLk6GJQsqaUBKTNV-1">
          <mxGeometry x="220" y="290" width="40" height="30" as="geometry" />
        </mxCell>
        <mxCell id="CfyG0F-m-0q7RZzn8O8Q-18" value="&lt;span id=&quot;selected_text&quot;&gt;&lt;/span&gt;&lt;b&gt;&lt;span id=&quot;selected_text&quot;&gt;&lt;/span&gt;67&lt;/b&gt;" style="text;html=1;align=center;verticalAlign=middle;resizable=0;points=[];autosize=1;strokeColor=none;fillColor=none;" vertex="1" parent="WIyWlLk6GJQsqaUBKTNV-1">
          <mxGeometry x="314" y="290" width="40" height="30" as="geometry" />
        </mxCell>
        <mxCell id="CfyG0F-m-0q7RZzn8O8Q-19" value="&lt;span id=&quot;selected_text&quot;&gt;&lt;/span&gt;&lt;b&gt;&lt;span id=&quot;selected_text&quot;&gt;&lt;/span&gt;default&lt;/b&gt;" style="text;html=1;align=center;verticalAlign=middle;resizable=0;points=[];autosize=1;strokeColor=none;fillColor=none;" vertex="1" parent="WIyWlLk6GJQsqaUBKTNV-1">
          <mxGeometry x="384" y="240" width="60" height="30" as="geometry" />
        </mxCell>
        <mxCell id="CfyG0F-m-0q7RZzn8O8Q-25" style="edgeStyle=orthogonalEdgeStyle;rounded=0;orthogonalLoop=1;jettySize=auto;html=1;exitX=0.5;exitY=1;exitDx=0;exitDy=0;" edge="1" parent="WIyWlLk6GJQsqaUBKTNV-1" source="CfyG0F-m-0q7RZzn8O8Q-20" target="CfyG0F-m-0q7RZzn8O8Q-26">
          <mxGeometry relative="1" as="geometry">
            <mxPoint x="290.0344827586207" y="580.0000000000001" as="targetPoint" />
          </mxGeometry>
        </mxCell>
        <mxCell id="CfyG0F-m-0q7RZzn8O8Q-20" value="&lt;span id=&quot;selected_text&quot;&gt;&lt;/span&gt;&lt;span id=&quot;selected_text&quot;&gt;&lt;/span&gt;(7) break" style="rounded=1;whiteSpace=wrap;html=1;" vertex="1" parent="WIyWlLk6GJQsqaUBKTNV-1">
          <mxGeometry x="230" y="470" width="120" height="60" as="geometry" />
        </mxCell>
        <mxCell id="CfyG0F-m-0q7RZzn8O8Q-21" style="edgeStyle=orthogonalEdgeStyle;rounded=0;orthogonalLoop=1;jettySize=auto;html=1;exitX=0.5;exitY=1;exitDx=0;exitDy=0;" edge="1" parent="WIyWlLk6GJQsqaUBKTNV-1">
          <mxGeometry relative="1" as="geometry">
            <mxPoint x="81.00000000000011" y="400" as="sourcePoint" />
            <mxPoint x="230" y="500" as="targetPoint" />
            <Array as="points">
              <mxPoint x="81" y="500" />
            </Array>
          </mxGeometry>
        </mxCell>
        <mxCell id="CfyG0F-m-0q7RZzn8O8Q-22" style="edgeStyle=orthogonalEdgeStyle;rounded=0;orthogonalLoop=1;jettySize=auto;html=1;exitX=0.5;exitY=1;exitDx=0;exitDy=0;entryX=0.381;entryY=-0.012;entryDx=0;entryDy=0;entryPerimeter=0;" edge="1" parent="WIyWlLk6GJQsqaUBKTNV-1" source="CfyG0F-m-0q7RZzn8O8Q-9" target="CfyG0F-m-0q7RZzn8O8Q-20">
          <mxGeometry relative="1" as="geometry" />
        </mxCell>
        <mxCell id="CfyG0F-m-0q7RZzn8O8Q-23" style="edgeStyle=orthogonalEdgeStyle;rounded=0;orthogonalLoop=1;jettySize=auto;html=1;exitX=0.5;exitY=1;exitDx=0;exitDy=0;entryX=0.621;entryY=0.018;entryDx=0;entryDy=0;entryPerimeter=0;" edge="1" parent="WIyWlLk6GJQsqaUBKTNV-1" source="CfyG0F-m-0q7RZzn8O8Q-10" target="CfyG0F-m-0q7RZzn8O8Q-20">
          <mxGeometry relative="1" as="geometry" />
        </mxCell>
        <mxCell id="CfyG0F-m-0q7RZzn8O8Q-26" value="&lt;span id=&quot;selected_text&quot;&gt;&lt;/span&gt;&lt;span id=&quot;selected_text&quot;&gt;&lt;/span&gt;(8) return res" style="rounded=1;whiteSpace=wrap;html=1;" vertex="1" parent="WIyWlLk6GJQsqaUBKTNV-1">
          <mxGeometry x="230.0044827586207" y="620.0000000000001" width="120" height="60" as="geometry" />
        </mxCell>
      </root>
    </mxGraphModel>
  </diagram>
</mxfile>
